<svg xmlns="http://www.w3.org/2000/svg" viewBox="0 0 110 110" id="antenna"><g data-name="20. Antenna"><circle cx="55" cy="55" r="50" fill="#e7efff"></circle><circle cx="12" cy="4" r="3" fill="#ffa100"></circle><circle cx="106" cy="14" r="3" fill="#00c99f"></circle><circle cx="98" cy="106" r="3" fill="#ff4d69"></circle><circle cx="8" cy="91" r="3" fill="#00c99f"></circle><path fill="#4e6aff" d="M65.9,49.38A2,2,0,0,0,64,48H46a2,2,0,0,0-1.9,1.38L28.39,97.33q2.1,1.32,4.35,2.45L55,87.59,77.26,99.78q2.25-1.12,4.35-2.45ZM69,71.7,58.7,65.07l6.72-4.32ZM47.45,52h15.1l1.58,4.82L55,62.69l-9.13-5.87Zm-2.87,8.75,6.72,4.32L41,71.7ZM33.41,94.85l5.3-16.18,12.13,6.64Zm8.5-19L55,67.45l13.09,8.41L55,83Zm17.25,9.45,12.13-6.64,5.3,16.18Z"></path><rect width="6" height="8" x="52" y="31" fill="#a5bced"></rect><circle cx="55" cy="24" r="8" fill="#ff4d69"></circle><path fill="#7f96d1" d="M66 35.8a2 2 0 01-1.43-3.4 12 12 0 00-.08-16.89 2 2 0 012.82-2.82 16 16 0 01.12 22.51A2 2 0 0166 35.8zM44.1 35.9a2 2 0 01-1.41-.59 16 16 0 010-22.62 2 2 0 012.82 2.82 12 12 0 000 17A2 2 0 0144.1 35.9z"></path><path fill="#a5bced" d="M73.26 42.26a2 2 0 01-1.41-3.41 21 21 0 000-29.7 2 2 0 012.83-2.83 25 25 0 010 35.36A2 2 0 0173.26 42.26zM36.74 42.26a2 2 0 01-1.42-.58 25 25 0 010-35.36 2 2 0 112.83 2.83 21 21 0 000 29.7A2 2 0 0136.74 42.26z"></path><path fill="#4e6aff" d="M46,39H64a2,2,0,0,1,2,2v4a0,0,0,0,1,0,0H44a0,0,0,0,1,0,0V41A2,2,0,0,1,46,39Z"></path><rect width="32" height="8" x="39" y="45" fill="#323fd4" rx="1"></rect><path fill="#fff" d="M28 57a9 9 0 01-9 9H6.22a50.19 50.19 0 011-25.59A10 10 0 0119.81 48 9 9 0 0128 57zM100.83 75H93a9 9 0 01-.81-18 10 10 0 0112.49-7.68A49.59 49.59 0 01100.83 75z"></path></g></svg>