<svg xmlns="http://www.w3.org/2000/svg" viewBox="0 0 32 32" id="disk"><g data-name="Layer 2"><path d="M16 30.75A14.75 14.75 0 1 1 30.75 16 14.77 14.77 0 0 1 16 30.75Zm0-28A13.25 13.25 0 1 0 29.25 16 13.27 13.27 0 0 0 16 2.75Z"></path><path d="M16 20.75A4.75 4.75 0 1 1 20.75 16 4.76 4.76 0 0 1 16 20.75zm0-8A3.25 3.25 0 1 0 19.25 16 3.25 3.25 0 0 0 16 12.75zm-8.5 9.84a10.7 10.7 0 0 1-1.12-1.79.76.76 0 0 1 .38-1.05.76.76 0 0 1 1 .39 9.18 9.18 0 0 0 1 1.53.76.76 0 0 1-.07 1 .76.76 0 0 1-1.19-.08zM6.05 16H6a.75.75 0 0 1-.75-.78 10.77 10.77 0 0 1 9.94-9.94A.75.75 0 0 1 16 6a.76.76 0 0 1-.72.75 9.24 9.24 0 0 0-8.48 8.5.76.76 0 0 1-.75.75z"></path></g></svg>