<svg xmlns="http://www.w3.org/2000/svg" viewBox="0 0 100 100" id="hard-disk"><circle cx="23.862" cy="11.457" r="1.5"></circle><circle cx="23.862" cy="49.294" r="1.5"></circle><circle cx="23.862" cy="87.13" r="1.5"></circle><circle cx="76.138" cy="11.457" r="1.5"></circle><circle cx="76.138" cy="49.294" r="1.5"></circle><circle cx="76.138" cy="87.13" r="1.5"></circle><path d="M19.433 96.5h61.134c1.93 0 3.5-1.57 3.5-3.5V7c0-1.93-1.57-3.5-3.5-3.5H19.433c-1.93 0-3.5 1.57-3.5 3.5v86c0 1.93 1.57 3.5 3.5 3.5zm-.5-89.5a.5.5 0 0 1 .5-.5h61.134a.5.5 0 0 1 .5.5v86a.5.5 0 0 1-.5.5H19.433a.5.5 0 0 1-.5-.5V7z"></path><path d="M50 47.854c5.631 0 10.213-4.581 10.213-10.212S55.631 27.43 50 27.43s-10.212 4.581-10.212 10.212S44.369 47.854 50 47.854zm0-17.424c3.977 0 7.213 3.235 7.213 7.212S53.977 44.854 50 44.854s-7.212-3.235-7.212-7.212S46.023 30.43 50 30.43zm-2.252 44.341h-7.444a5.76 5.76 0 0 1-5.754-5.754v-7.293a1.5 1.5 0 0 0-1.5-1.5h-8.104a1.5 1.5 0 0 0-1.5 1.5V76.7c0 1.593.583 3.126 1.641 4.317l6.158 6.932a6.507 6.507 0 0 0 4.859 2.183H47.83a1.497 1.497 0 0 0 1.5-1.51l-.082-12.36a1.5 1.5 0 0 0-1.5-1.491zM36.104 87.13a3.508 3.508 0 0 1-2.617-1.175l-6.158-6.932a3.498 3.498 0 0 1-.884-2.325V63.223h5.104v5.793c0 4.827 3.927 8.754 8.754 8.754h5.954l.062 9.36H36.104zm34.154-10.453H54.411a1.5 1.5 0 0 0-1.5 1.5V88.63a1.5 1.5 0 0 0 1.5 1.5h15.847a1.5 1.5 0 0 0 1.5-1.5V78.177a1.5 1.5 0 0 0-1.5-1.5zm-1.5 10.453H55.911v-7.454h12.847v7.454z"></path><path d="m41.461 60.281-2.184 1.569a6.03 6.03 0 0 0-2.495 4.413 6.03 6.03 0 0 0 1.747 4.758 6.026 6.026 0 0 0 4.758 1.749 6.031 6.031 0 0 0 4.414-2.492l6.318-8.784c11.554-1.938 20.193-12.062 20.193-23.852 0-13.35-10.861-24.212-24.212-24.212S25.788 24.292 25.788 37.642a24.083 24.083 0 0 0 15.673 22.639zm3.805 8.245a3.032 3.032 0 0 1-2.22 1.254 3.03 3.03 0 0 1-2.394-.88 3.029 3.029 0 0 1-.879-2.393 3.03 3.03 0 0 1 1.255-2.22l4.624-3.323h.001l10.458-7.515-4.178 5.808-.001.001-6.666 9.268zM50 16.43c11.697 0 21.212 9.516 21.212 21.212 0 9.219-6.022 17.289-14.511 20.124l7.203-10.014a1.5 1.5 0 0 0-2.094-2.095L44.468 58.12c-9.266-2.487-15.681-10.813-15.681-20.478C28.788 25.945 38.303 16.43 50 16.43z"></path></svg>