<svg xmlns="http://www.w3.org/2000/svg" enable-background="new 0 0 1000 1000" viewBox="0 0 1000 1000" id="radio"><path fill="#3a3d41" d="M0 0h1000v1000H0z"></path><ellipse cx="509" cy="708.755" fill="#2f3133" opacity=".67" rx="280.576" ry="14.911"></ellipse><path fill="#56242a" d="m352.068 472.35-15.341-15.34 132.544-128.567 11.363 11.363z"></path><path fill="none" stroke="#56242a" stroke-linecap="round" stroke-linejoin="round" stroke-miterlimit="10" stroke-width="4" d="m352.068 472.35-15.341-15.34 132.544-128.567 11.363 11.363z"></path><path fill="#56242a" d="m478.909 338.081-7.913-7.912 131.581-129.53 5.861 5.861z"></path><path fill="none" stroke="#fff" stroke-linecap="round" stroke-miterlimit="10" stroke-width="4" d="m602.38 205.365-126.323 123.7M468.087 338.346l-126.323 123.7" opacity=".53"></path><path fill="none" stroke="#56242a" stroke-linecap="round" stroke-linejoin="round" stroke-miterlimit="10" stroke-width="4" d="m478.909 338.081-7.913-7.912 131.581-129.53 5.861 5.861z"></path><path fill="#56242a" d="m605.019 186.635-7.048 7.048a1.769 1.769 0 0 0-.174 2.31 77.198 77.198 0 0 0 15.279 15.294 1.769 1.769 0 0 0 2.31-.174l7.063-7.063a1.769 1.769 0 0 0 .174-2.31 77.198 77.198 0 0 0-15.294-15.279 1.77 1.77 0 0 0-2.31.174z"></path><path fill="#fff" d="M621.934 202.508a56.117 56.117 0 0 0-14.738-14.717c-.704-.481-1.825-.233-2.62.562l-1.878 1.878c.795-.795-4.905 3.993-4.201 4.473.314.214 7.356-5.015 7.665-4.795 5.405 3.851 10.141 8.987 13.894 14.477.481.704.233 1.825-.562 2.621l1.878-1.878c.795-.796 1.043-1.918.562-2.621z" opacity=".53"></path><path fill="none" stroke="#56242a" stroke-linecap="round" stroke-linejoin="round" stroke-miterlimit="10" stroke-width="4" d="m605.019 186.635-7.048 7.048a1.769 1.769 0 0 0-.174 2.31 77.198 77.198 0 0 0 15.279 15.294 1.769 1.769 0 0 0 2.31-.174l7.063-7.063a1.769 1.769 0 0 0 .174-2.31 77.198 77.198 0 0 0-15.294-15.279 1.77 1.77 0 0 0-2.31.174z"></path><path fill="#56242a" d="M725.138 415.82c-1.227-23.125-18.878-41.893-41.601-44.534a1560.823 1560.823 0 0 0-360.54 0c-22.722 2.642-40.374 21.41-41.6 44.535-1.752 33.02-.598 65.625 3.462 99.191l.987.135c-2.934-29.07-3.641-57.529-2.114-86.306 1.214-22.882 18.679-41.452 41.163-44.066a1544.448 1544.448 0 0 1 356.746 0c22.483 2.614 39.949 21.184 41.163 44.066 1.527 28.777.82 57.236-2.114 86.306l.987-.135c4.059-33.567 5.213-66.172 3.461-99.192z"></path><g opacity=".29"><path fill="#fff" d="M281.397 424.82c1.227-23.125 18.878-41.893 41.6-44.535a1560.823 1560.823 0 0 1 360.54 0c22.722 2.642 40.374 21.41 41.6 44.534.433 8.154.686 16.282.765 24.406a560.215 560.215 0 0 0-.765-34.406c-1.227-23.125-18.878-41.893-41.6-44.534a1560.823 1560.823 0 0 0-360.54 0c-22.722 2.642-40.374 21.41-41.6 44.535a561.79 561.79 0 0 0-.765 34.406c.079-8.124.333-16.252.765-24.406zM284.919 514.019c.309.043.618.083.927.127a565.948 565.948 0 0 1-2.855-51.66 559.603 559.603 0 0 0 1.928 51.533zM723.544 462.484a565.991 565.991 0 0 1-2.855 51.662c.309-.044.618-.084.927-.127a559.307 559.307 0 0 0 1.928-51.535z"></path></g><path fill="none" stroke="#56242a" stroke-linecap="round" stroke-linejoin="round" stroke-miterlimit="10" stroke-width="4" d="M725.138 415.82c-1.227-23.125-18.878-41.893-41.601-44.534a1560.823 1560.823 0 0 0-360.54 0c-22.722 2.642-40.374 21.41-41.6 44.535-1.752 33.02-.598 65.625 3.462 99.191l.987.135c-2.934-29.07-3.641-57.529-2.114-86.306 1.214-22.882 18.679-41.452 41.163-44.066a1544.448 1544.448 0 0 1 356.746 0c22.483 2.614 39.949 21.184 41.163 44.066 1.527 28.777.82 57.236-2.114 86.306l.987-.135c4.059-33.567 5.213-66.172 3.461-99.192z"></path><path fill="#56242a" d="M285.006 613.492H263.32c-5.984 0-10.955-4.65-11.528-10.716a367.73 367.73 0 0 1 0-69.07c.572-6.067 5.543-10.716 11.528-10.716h21.686c5.984 0 10.955 4.65 11.528 10.716a367.73 367.73 0 0 1 0 69.07c-.573 6.066-5.544 10.716-11.528 10.716z"></path><path fill="#f9dedc" d="M257.042 602.776a367.73 367.73 0 0 1 0-69.07c.572-6.067 5.543-10.716 11.528-10.716h-5.25c-5.984 0-10.955 4.65-11.528 10.716a367.73 367.73 0 0 0 0 69.07c.572 6.067 5.543 10.716 11.528 10.716h5.25c-5.984 0-10.955-4.65-11.528-10.716z" opacity=".47"></path><path fill="none" stroke="#56242a" stroke-linecap="round" stroke-linejoin="round" stroke-miterlimit="10" stroke-width="6" d="M285.006 613.492H263.32c-5.984 0-10.955-4.65-11.528-10.716a367.73 367.73 0 0 1 0-69.07c.572-6.067 5.543-10.716 11.528-10.716h21.686c5.984 0 10.955 4.65 11.528 10.716a367.73 367.73 0 0 1 0 69.07c-.573 6.066-5.544 10.716-11.528 10.716z"></path><path fill="#da4328" d="M685.225 703.644a2135.686 2135.686 0 0 1-357.493 0c-25.019-2.101-45.275-21.153-48.953-45.99-8.871-59.915-8.871-118.913 0-178.828 3.677-24.836 23.934-43.888 48.953-45.99a2135.686 2135.686 0 0 1 357.493 0c25.019 2.101 45.275 21.153 48.953 45.99 8.871 59.915 8.871 118.913 0 178.828-3.677 24.837-23.934 43.889-48.953 45.99z"></path><path fill="#bc2f1d" d="M734.178 480.826c-3.677-24.836-23.934-43.888-48.953-45.99a2135.497 2135.497 0 0 0-252.74-6.204 2251.348 2251.348 0 0 1 232.659 7.46c26.376 2.215 47.73 22.301 51.607 48.484 9.352 63.164 9.352 125.362 0 188.525a56.936 56.936 0 0 1-11.555 26.862c15.253-7.765 26.353-22.557 28.981-40.308 8.872-59.915 8.872-118.914.001-178.829z" opacity=".34"></path><path fill="#e85642" d="M278.78 486.424c3.677-24.836 23.934-43.888 48.953-45.99a2135.686 2135.686 0 0 1 357.493 0c25.019 2.101 45.275 21.154 48.953 45.99 4.222 28.513 6.41 56.819 6.613 85.115.224-31.162-1.964-62.312-6.613-93.713-3.677-24.836-23.934-43.888-48.953-45.99a2135.686 2135.686 0 0 0-357.493 0c-25.019 2.101-45.275 21.153-48.953 45.99-4.649 31.401-6.837 62.551-6.613 93.713.203-28.295 2.391-56.601 6.613-85.115z"></path><path fill="#bc2f1d" d="M296.206 673.101c-9.352-63.164-9.352-125.362 0-188.526 3.877-26.183 25.232-46.268 51.607-48.483a2251.637 2251.637 0 0 1 232.659-7.46 2135.71 2135.71 0 0 0-252.74 6.204c-25.019 2.101-45.275 21.153-48.953 45.99-8.871 59.915-8.871 118.913 0 178.828 2.628 17.751 13.729 32.544 28.982 40.308a56.938 56.938 0 0 1-11.555-26.861z" opacity=".34"></path><path fill="#e85642" d="M303.67 695.647a53.873 53.873 0 0 0 24.062 7.997 2135.686 2135.686 0 0 0 357.493 0 53.865 53.865 0 0 0 24.062-7.997 2576.552 2576.552 0 0 1-405.617 0z"></path><path fill="#843949" d="M734.178 478.826c-.026-.177-.062-.35-.089-.526-10.496-10.099-25.068-16.299-41.148-16.053-6.082.093-12.906.656-21.003 1.715-57.328 5.85-139.331 49.109-177.345 78.283-22.442 17.781-22.442 34.208 0 51.989 38.013 29.174 120.017 72.433 177.344 78.283 8.098 1.059 14.921 1.622 21.003 1.715 16.08.245 30.652-5.954 41.148-16.053.028-.176.063-.349.089-.526 8.872-59.913 8.872-118.912.001-178.827z"></path><defs><filter id="a" width="276.072" height="198" x="475.761" y="468.838" filterUnits="userSpaceOnUse"><feColorMatrix color-interpolation-filters="sRGB" result="source" values="-1 0 0 0 1 0 -1 0 0 1 0 0 -1 0 1 0 0 0 1 0"></feColorMatrix></filter></defs><mask id="b" width="276.072" height="198" x="475.761" y="468.838" maskUnits="userSpaceOnUse"><path d="M734.178 478.826c-.026-.177-.062-.35-.089-.526-10.496-10.099-25.068-16.299-41.148-16.053-6.082.093-12.906.656-21.003 1.715-57.328 5.85-139.331 49.109-177.345 78.283-22.442 17.781-22.442 34.208 0 51.989 38.013 29.174 120.017 72.433 177.344 78.283 8.098 1.059 14.921 1.622 21.003 1.715 16.08.245 30.652-5.954 41.148-16.053.028-.176.063-.349.089-.526 8.872-59.913 8.872-118.912.001-178.827z" filter="url(#a)"></path></mask><g mask="url(#b)"><path fill="none" stroke="#934451" stroke-linecap="round" stroke-linejoin="round" stroke-miterlimit="10" stroke-width="4" d="M477.761 662.838h272.072"></path><path fill="none" stroke="#56242a" stroke-linecap="round" stroke-linejoin="round" stroke-miterlimit="10" stroke-width="2" d="M477.761 665.838h272.072"></path><path fill="none" stroke="#934451" stroke-linecap="round" stroke-linejoin="round" stroke-miterlimit="10" stroke-width="4" d="M477.761 650.838h272.072"></path><path fill="none" stroke="#56242a" stroke-linecap="round" stroke-linejoin="round" stroke-miterlimit="10" stroke-width="2" d="M477.761 653.838h272.072"></path><path fill="none" stroke="#934451" stroke-linecap="round" stroke-linejoin="round" stroke-miterlimit="10" stroke-width="4" d="M477.761 638.838h272.072"></path><path fill="none" stroke="#56242a" stroke-linecap="round" stroke-linejoin="round" stroke-miterlimit="10" stroke-width="2" d="M477.761 641.838h272.072"></path><path fill="none" stroke="#934451" stroke-linecap="round" stroke-linejoin="round" stroke-miterlimit="10" stroke-width="4" d="M477.761 626.838h272.072"></path><path fill="none" stroke="#56242a" stroke-linecap="round" stroke-linejoin="round" stroke-miterlimit="10" stroke-width="2" d="M477.761 629.838h272.072"></path><path fill="none" stroke="#934451" stroke-linecap="round" stroke-linejoin="round" stroke-miterlimit="10" stroke-width="4" d="M477.761 614.838h272.072"></path><path fill="none" stroke="#56242a" stroke-linecap="round" stroke-linejoin="round" stroke-miterlimit="10" stroke-width="2" d="M477.761 617.838h272.072"></path><path fill="none" stroke="#934451" stroke-linecap="round" stroke-linejoin="round" stroke-miterlimit="10" stroke-width="4" d="M477.761 602.838h272.072"></path><path fill="none" stroke="#56242a" stroke-linecap="round" stroke-linejoin="round" stroke-miterlimit="10" stroke-width="2" d="M477.761 605.838h272.072"></path><path fill="none" stroke="#934451" stroke-linecap="round" stroke-linejoin="round" stroke-miterlimit="10" stroke-width="4" d="M477.761 590.838h272.072"></path><path fill="none" stroke="#56242a" stroke-linecap="round" stroke-linejoin="round" stroke-miterlimit="10" stroke-width="2" d="M477.761 593.838h272.072"></path><path fill="none" stroke="#934451" stroke-linecap="round" stroke-linejoin="round" stroke-miterlimit="10" stroke-width="4" d="M477.761 578.838h272.072"></path><path fill="none" stroke="#56242a" stroke-linecap="round" stroke-linejoin="round" stroke-miterlimit="10" stroke-width="2" d="M477.761 581.838h272.072"></path><path fill="none" stroke="#934451" stroke-linecap="round" stroke-linejoin="round" stroke-miterlimit="10" stroke-width="4" d="M477.761 566.838h272.072"></path><path fill="none" stroke="#56242a" stroke-linecap="round" stroke-linejoin="round" stroke-miterlimit="10" stroke-width="2" d="M477.761 569.838h272.072"></path><path fill="none" stroke="#934451" stroke-linecap="round" stroke-linejoin="round" stroke-miterlimit="10" stroke-width="4" d="M477.761 554.838h272.072"></path><path fill="none" stroke="#56242a" stroke-linecap="round" stroke-linejoin="round" stroke-miterlimit="10" stroke-width="2" d="M477.761 557.838h272.072"></path><path fill="none" stroke="#934451" stroke-linecap="round" stroke-linejoin="round" stroke-miterlimit="10" stroke-width="4" d="M477.761 542.838h272.072"></path><path fill="none" stroke="#56242a" stroke-linecap="round" stroke-linejoin="round" stroke-miterlimit="10" stroke-width="2" d="M477.761 545.838h272.072"></path><path fill="none" stroke="#934451" stroke-linecap="round" stroke-linejoin="round" stroke-miterlimit="10" stroke-width="4" d="M477.761 530.838h272.072"></path><path fill="none" stroke="#56242a" stroke-linecap="round" stroke-linejoin="round" stroke-miterlimit="10" stroke-width="2" d="M477.761 533.838h272.072"></path><path fill="none" stroke="#934451" stroke-linecap="round" stroke-linejoin="round" stroke-miterlimit="10" stroke-width="4" d="M477.761 518.838h272.072"></path><path fill="none" stroke="#56242a" stroke-linecap="round" stroke-linejoin="round" stroke-miterlimit="10" stroke-width="2" d="M477.761 521.838h272.072"></path><path fill="none" stroke="#934451" stroke-linecap="round" stroke-linejoin="round" stroke-miterlimit="10" stroke-width="4" d="M477.761 506.838h272.072"></path><path fill="none" stroke="#56242a" stroke-linecap="round" stroke-linejoin="round" stroke-miterlimit="10" stroke-width="2" d="M477.761 509.838h272.072"></path><path fill="none" stroke="#934451" stroke-linecap="round" stroke-linejoin="round" stroke-miterlimit="10" stroke-width="4" d="M477.761 494.838h272.072"></path><path fill="none" stroke="#56242a" stroke-linecap="round" stroke-linejoin="round" stroke-miterlimit="10" stroke-width="2" d="M477.761 497.838h272.072"></path><path fill="none" stroke="#934451" stroke-linecap="round" stroke-linejoin="round" stroke-miterlimit="10" stroke-width="4" d="M477.761 482.838h272.072"></path><path fill="none" stroke="#56242a" stroke-linecap="round" stroke-linejoin="round" stroke-miterlimit="10" stroke-width="2" d="M477.761 485.838h272.072"></path><path fill="none" stroke="#934451" stroke-linecap="round" stroke-linejoin="round" stroke-miterlimit="10" stroke-width="4" d="M477.761 470.838h272.072"></path><path fill="none" stroke="#56242a" stroke-linecap="round" stroke-linejoin="round" stroke-miterlimit="10" stroke-width="2" d="M477.761 473.838h272.072"></path></g><path fill="#542934" d="M494.593 549.746c38.013-29.174 120.017-72.433 177.345-78.283 8.098-1.059 14.921-1.622 21.003-1.715 16.08-.245 30.652 5.954 41.148 16.053.028.176.063.349.089.526 4.249 28.698 6.44 57.185 6.618 85.664.194-30.979-1.996-61.947-6.618-93.164-.026-.177-.062-.35-.089-.526-10.496-10.099-25.068-16.299-41.148-16.053-6.082.093-12.906.656-21.003 1.715-57.328 5.85-139.331 49.109-177.345 78.283-12.86 10.19-18.336 19.935-16.457 29.745 1.4-7.309 6.875-14.654 16.457-22.245z" opacity=".44"></path><path fill="#ba7483" d="M734.178 648.654c-.026.177-.062.35-.089.526-10.496 10.099-25.068 16.299-41.148 16.053-6.082-.093-12.906-.657-21.003-1.715-57.327-5.85-139.332-49.109-177.344-78.283-9.253-7.332-14.681-14.434-16.303-21.495-2.312 10.064 3.115 20.045 16.303 30.495 38.013 29.174 120.017 72.433 177.344 78.283 8.098 1.059 14.921 1.622 21.003 1.715 16.08.245 30.652-5.954 41.148-16.053.028-.176.063-.349.089-.526 4.659-31.469 6.846-62.685 6.611-93.914-.212 28.229-2.399 56.469-6.611 84.914z" opacity=".17"></path><path fill="#542934" d="M734.178 478.826c-.026-.177-.062-.35-.089-.526-6.373-6.132-14.255-10.813-23.059-13.5a57.015 57.015 0 0 1 5.722 17.775c9.273 62.63 9.339 124.312.222 186.926 6.414-2.755 12.21-6.603 17.109-11.316.028-.178.069-.352.095-.531 8.871-59.914 8.871-118.913 0-178.828z" opacity=".4"></path><path fill="none" stroke="#56242a" stroke-linecap="round" stroke-linejoin="round" stroke-miterlimit="10" stroke-width="6" d="M734.178 478.826c-.026-.177-.062-.35-.089-.526-10.496-10.099-25.068-16.299-41.148-16.053-6.082.093-12.906.656-21.003 1.715-57.328 5.85-139.331 49.109-177.345 78.283-22.442 17.781-22.442 34.208 0 51.989 38.013 29.174 120.017 72.433 177.344 78.283 8.098 1.059 14.921 1.622 21.003 1.715 16.08.245 30.652-5.954 41.148-16.053.028-.176.063-.349.089-.526 8.872-59.913 8.872-118.912.001-178.827z"></path><path fill="#bc2f1d" stroke="#bc2f1d" stroke-linecap="round" stroke-linejoin="round" stroke-miterlimit="10" stroke-width="4" d="M317.167 481.338h180v51.5h-180z" opacity=".54"></path><path fill="none" stroke="#56242a" stroke-linecap="round" stroke-linejoin="round" stroke-miterlimit="10" stroke-width="6" d="M685.225 703.644a2135.686 2135.686 0 0 1-357.493 0c-25.019-2.101-45.275-21.153-48.953-45.99-8.871-59.915-8.871-118.913 0-178.828 3.677-24.836 23.934-43.888 48.953-45.99a2135.686 2135.686 0 0 1 357.493 0c25.019 2.101 45.275 21.153 48.953 45.99 8.871 59.915 8.871 118.913 0 178.828-3.677 24.837-23.934 43.889-48.953 45.99z"></path><path fill="#dddbdb" d="M321.167 484.838h172v44h-172z"></path><path fill="#ea1b3d" d="M401.833 486.422h9v42.417h-9z"></path><path fill="#d11539" d="M409.25 486.422h1.583v42.417h-1.583z"></path><path fill="#fff" d="M489.917 491.338h-165.5a3.25 3.25 0 1 1 0-6.5h165.5a3.25 3.25 0 1 1 0 6.5z" opacity=".66"></path><path fill="#898989" d="M489.917 529.088h-165.5a3.25 3.25 0 0 1-3.25-3.25v-.75a3.25 3.25 0 0 1 3.25-3.25h165.5a3.25 3.25 0 0 1 3.25 3.25v.75a3.25 3.25 0 0 1-3.25 3.25z" opacity=".32"></path><path fill="none" stroke="#56242a" stroke-linecap="round" stroke-linejoin="round" stroke-miterlimit="10" stroke-width="4" d="M321.167 484.838h172v44h-172z"></path><path fill="#56242a" d="M477.438 502.005h-.542a1.896 1.896 0 0 1-1.896-1.896v-4.542c0-1.047.849-1.896 1.896-1.896h.542c1.047 0 1.896.849 1.896 1.896v4.542a1.897 1.897 0 0 1-1.896 1.896zM449.438 502.005h-.542a1.896 1.896 0 0 1-1.896-1.896v-4.542c0-1.047.849-1.896 1.896-1.896h.542c1.047 0 1.896.849 1.896 1.896v4.542a1.897 1.897 0 0 1-1.896 1.896zM421.438 502.005h-.542a1.896 1.896 0 0 1-1.896-1.896v-4.542c0-1.047.849-1.896 1.896-1.896h.542c1.047 0 1.896.849 1.896 1.896v4.542a1.897 1.897 0 0 1-1.896 1.896zM393.438 502.005h-.542a1.896 1.896 0 0 1-1.896-1.896v-4.542c0-1.047.849-1.896 1.896-1.896h.542c1.047 0 1.896.849 1.896 1.896v4.542a1.897 1.897 0 0 1-1.896 1.896zM365.438 502.005h-.542a1.896 1.896 0 0 1-1.896-1.896v-4.542c0-1.047.849-1.896 1.896-1.896h.542c1.047 0 1.896.849 1.896 1.896v4.542a1.897 1.897 0 0 1-1.896 1.896zM337.438 502.005h-.542a1.896 1.896 0 0 1-1.896-1.896v-4.542c0-1.047.849-1.896 1.896-1.896h.542c1.047 0 1.896.849 1.896 1.896v4.542a1.897 1.897 0 0 1-1.896 1.896z"></path><path fill="#bc2f1d" d="M409.333 625.172h-77a5.167 5.167 0 0 1 0-10.334h77a5.167 5.167 0 1 1 0 10.334zM472.595 644.005H332.333a5.167 5.167 0 0 1 0-10.334h140.261a5.166 5.166 0 1 1 .001 10.334zM528.667 662.838H332.333a5.167 5.167 0 0 1 0-10.334h196.333a5.166 5.166 0 1 1 .001 10.334z" opacity=".34"></path><circle cx="340.167" cy="589.838" r="13" fill="#bc2f1d" opacity=".34"></circle><circle cx="369.5" cy="589.838" r="8" fill="#bc2f1d" opacity=".34"></circle><path fill="#da4328" d="M647.907 390.902c-48.078-4.289-96.742-6.464-144.639-6.464-47.897 0-96.561 2.175-144.639 6.464a5 5 0 0 1-5.444-4.98v-23.704a5 5 0 0 1 4.563-4.981c48.387-4.245 97.347-6.397 145.521-6.397 48.173 0 97.133 2.152 145.52 6.397h.001a5 5 0 0 1 4.563 4.981v23.704a5.002 5.002 0 0 1-5.446 4.98z"></path><path fill="#e85642" d="M648.788 357.237c-48.387-4.245-97.347-6.397-145.52-6.397-48.173 0-97.133 2.152-145.521 6.397a5 5 0 0 0-4.563 4.981v6.557a5 5 0 0 1 4.563-4.981c48.387-4.245 97.347-6.397 145.521-6.397 48.173 0 97.133 2.152 145.52 6.397h.001a5 5 0 0 1 4.563 4.981v-6.557a5.002 5.002 0 0 0-4.564-4.981z"></path><path fill="#bc2f1d" d="M503.867 384.438c46.253 0 93.111 1.494 139.699 4.401-8.024-9.319-69.221-16.566-143.537-16.566-75.631 0-137.676 7.505-143.914 17.062 49.235-3.248 98.833-4.897 147.752-4.897z" opacity=".34"></path><path fill="none" stroke="#56242a" stroke-linecap="round" stroke-linejoin="round" stroke-miterlimit="10" stroke-width="4" d="M647.907 390.902c-48.078-4.289-96.742-6.464-144.639-6.464-47.897 0-96.561 2.175-144.639 6.464v0a5 5 0 0 1-5.444-4.98v-23.704a5 5 0 0 1 4.563-4.981h0c48.387-4.245 97.347-6.397 145.521-6.397 48.173 0 97.133 2.152 145.52 6.397h.001a5 5 0 0 1 4.563 4.981v23.704a5.002 5.002 0 0 1-5.446 4.98h0z"></path></svg>